<svg width="920" height="640" viewBox="0 0 920 640" fill="none" xmlns="http://www.w3.org/2000/svg">
<path d="M499.226 86.8784C501.737 86.7104 504.257 86.7647 506.759 87.0418C517.909 88.1889 527.868 93.6687 535.096 102.224C543.874 112.616 542.486 124.491 542.544 137.12C542.575 144.26 542.535 151.467 542.53 158.638L542.526 236.697L542.512 319.793C542.495 329.336 543.114 350.418 542.189 358.952L589.007 313.054C598.126 304.033 607.02 294.81 616.472 286.142C632.787 271.184 661.632 275.112 675.513 291.645C678.716 295.438 680.948 299.956 682.013 304.807C683.603 311.782 683.338 349.666 682.619 357.578C697.394 342.392 713.049 327.995 728.148 313.123C737.334 304.09 746.422 294.72 756.233 286.368C761.219 282.577 767.504 279.963 773.546 278.717C793.424 274.617 812.084 283.959 819.712 302.97C824.258 314.306 823.912 323.751 823.984 335.579L823.961 365.136L824.042 443.668C823.935 456.843 820.97 496.523 844.163 474.489C848.695 470.182 853.709 466.023 858.394 461.838C864.315 466.176 870.536 472.302 876.74 476.937C869.804 484.904 857.59 496.447 849.589 504.347C837.604 514.915 826.702 529.92 813.364 538.66C792.772 552.161 758.465 540.138 750.685 517.25C747.76 508.645 749.014 484.397 749.014 474.494L749.005 388.729V361.234C749.005 356.823 749.018 352.496 748.991 348.018C749.211 342.718 741.939 337.424 737.393 340.887C733.565 343.8 729.423 348.439 725.893 351.878L701.985 374.911C697.56 379.232 688.747 388.271 684.007 391.53C683.518 413.079 683.482 434.634 683.909 456.183C684.106 466.737 681.424 474.97 691.99 481.024L697.749 481.042C703.167 477.175 713.409 466.728 718.215 461.914C723.323 465.493 731.472 472.122 736.332 476.187C725.699 487.994 713.202 499.425 702.07 511.322C687.637 526.754 672.341 543.865 649.808 544.454C638.78 544.746 628.084 540.654 620.07 533.073C609.343 522.842 608.696 514.47 608.799 500.48C608.876 489.818 609.046 478.805 608.835 468.152L561.618 513.442C553.707 521.027 540.455 535.305 531.7 540.421C513.673 550.952 477.708 538.413 471.567 517.834C470.512 514.035 470.175 509.606 470.184 505.654C470.206 492.903 469.613 480.036 469.523 467.312C462.498 473.326 455.157 481.029 448.346 487.415C436.42 498.693 424.418 510.352 412.622 521.719C399.806 534.065 393.075 542.841 373.674 543.021C357.124 543.717 334.123 532.089 330.796 514.488C329.36 506.889 330.044 492.14 330.046 483.764L330.066 423.86L330.108 373.742C330.121 364.949 330.481 355.255 329.621 346.582C329.457 344.929 328.086 342.4 327.294 340.875L323.147 338.609C323.082 338.643 323.017 338.679 322.95 338.71C315.918 342.04 300.119 358.808 293.663 365.03C288.494 370.013 283.16 374.825 277.953 379.769C278.207 367.97 277.833 355.916 278.075 343.927C280.143 341.702 282.657 339.285 284.898 337.147C304.249 318.681 322.176 298.052 342.525 280.772C345.029 278.646 351.966 277.05 355.217 276.735C367.902 275.567 380.53 279.499 390.308 287.661C401.894 297.415 404.336 309.253 404.045 323.598C403.863 332.564 404.069 341.665 404.03 350.643L404.001 430.725C404.039 442.678 403.704 455.213 404.181 467.092C404.441 473.537 406.115 477.925 411.029 482.03L417.161 482.021C424.678 475.819 433.97 466.095 440.973 459.093L469.622 430.913C469.056 408.329 469.505 383.967 469.505 361.291L469.443 229.503L469.514 182.487C469.546 175.083 469.919 163.06 469.384 156.138C469.213 153.789 468.382 151.536 466.994 149.635C463.711 145.209 458.468 144.941 454.457 148.665C448.606 154.092 443.048 159.907 437.413 165.564L413.599 189.008L344.517 257.453L174.387 425.553C156.292 443.76 138.081 461.851 119.755 479.825C104.707 495.086 89.4165 510.109 73.8906 524.885C62.5016 525.29 51.2033 523.983 40.1664 524.09C48.2384 515.207 57.5319 507.001 65.9103 498.374C75.9714 488.012 86.6812 478.352 96.9032 468.143L264.336 303.691C318.019 250.417 371.989 197.432 426.244 144.74C437.106 134.158 447.872 123.477 458.54 112.7C471.015 100.294 480.242 88.0389 499.226 86.8784ZM555.567 481.168C556.672 480.903 558.222 480.481 559.075 479.69C576.092 463.904 591.828 446.494 608.651 430.523C608.449 413.69 608.435 396.855 608.61 380.021C608.723 369.849 609.266 359.237 608.462 349.103C608.125 344.848 605.165 340.127 600.444 339.941C594.541 342.6 587.331 351.401 582.295 356.177C575.103 362.991 567.228 370.217 560.463 377.445C555.926 382.291 548.011 388.788 544.152 393.636C543.546 408.563 544.219 424.733 543.995 439.817C543.851 449.428 543.739 460.854 544.637 470.402C544.848 472.603 546.776 477.09 548.424 478.657C551.155 481.253 552.18 481.199 555.567 481.168ZM611.786 460.62C619.428 452.28 627.568 444.767 635.415 436.746C650.002 421.834 665.679 407.138 679.991 392.047C679.996 389.074 680.346 365.356 679.497 364.176C672.853 371.664 664.839 378.824 657.751 385.978C644.198 399.656 630.124 412.837 616.458 426.402C614.657 428.193 612.6 430.087 611.023 432.042C611.009 436.479 610.533 458.047 611.373 460.468L611.786 460.62ZM472.969 459.107L540.77 392.432C539.92 384.058 540.68 371.177 539.822 365.077C520.977 383.704 501.836 402.258 482.973 420.884C479.649 424.167 475.525 427.956 472.479 431.424C472.506 437.57 472.044 453.416 472.52 458.891L472.969 459.107Z" fill="#1E3A90"/>
<path d="M625.838 92.3027C649.503 93.7961 671.02 119.614 674.367 142.16C679.403 176.055 668.563 219.195 629.391 225.84C625.843 225.959 617.047 226.237 615.048 222.728C615.16 219.77 620.16 218.325 622.941 216.575C660.563 192.889 664.174 129.303 626.813 103.952C623.875 101.958 615.466 98.6116 617.891 94.2142C620.322 92.3481 622.873 92.3953 625.838 92.3027Z" fill="#1E3A90"/>
<path d="M742.509 92.1594C751.521 91.8904 758.412 94.9575 765.68 99.8305C780.208 109.516 790.221 124.646 793.451 141.802C794.893 149.212 794.601 155.018 794.421 162.438C793.747 190.49 780.365 219.777 749.903 225.679C746.211 226.062 735.861 226.405 734.136 222.541C735.034 219.503 738.066 219.145 740.663 217.568C780.262 193.524 784.048 128.325 744.293 102.742C741.489 100.937 736.085 98.9866 736.723 95.0028C738.21 93.073 740.2 92.7545 742.509 92.1594Z" fill="#1E3A90"/>
<path d="M683.994 92.1995C708.005 93.2908 730.259 118.402 733.781 141.359C739.019 175.486 728.759 217.831 689.793 225.793C686.069 226.014 676.312 226.22 674.668 222.271C676.532 220.13 682.242 216.523 684.847 214.73C719.684 190.776 722.402 132.921 689.717 105.896C686.321 103.092 675.818 99.3958 677.067 94.9054C678.99 92.7968 681.24 92.6733 683.994 92.1995Z" fill="#1E3A90"/>
</svg>
